<?xml version="1.0" encoding="UTF-8"?>
<svg id="Layer_1" data-name="Layer 1" xmlns="http://www.w3.org/2000/svg" xmlns:xlink="http://www.w3.org/1999/xlink" viewBox="0 0 99.56 84">
  <defs>
    <style>
      .cls-1 {
        fill: url(#linear-gradient-2);
      }

      .cls-2 {
        fill: none;
      }

      .cls-3 {
        fill: #b1e1f1;
      }

      .cls-4 {
        fill: url(#linear-gradient);
      }

      .cls-5 {
        clip-path: url(#clippath);
      }
    </style>
    <linearGradient id="linear-gradient" x1="42.46" y1="63.42" x2="118.74" y2="63.42" gradientUnits="userSpaceOnUse">
      <stop offset="0" stop-color="#e01f27"/>
      <stop offset=".59" stop-color="#f16322"/>
      <stop offset=".6" stop-color="#f16322" stop-opacity=".82"/>
      <stop offset=".62" stop-color="#f16322" stop-opacity=".65"/>
      <stop offset=".64" stop-color="#f16322" stop-opacity=".49"/>
      <stop offset=".66" stop-color="#f16322" stop-opacity=".36"/>
      <stop offset=".69" stop-color="#f16322" stop-opacity=".25"/>
      <stop offset=".72" stop-color="#f16322" stop-opacity=".16"/>
      <stop offset=".75" stop-color="#f16322" stop-opacity=".09"/>
      <stop offset=".79" stop-color="#f16322" stop-opacity=".04"/>
      <stop offset=".84" stop-color="#f16322" stop-opacity="0"/>
      <stop offset="1" stop-color="#f16322" stop-opacity="0"/>
    </linearGradient>
    <clipPath id="clippath">
      <path class="cls-2" d="M95.96,34.45c-3.07-9.45-11.81-15.8-21.75-15.8h-2.99s0,0,0,0c-7.02.75-13.74,4.84-17.77,10.96,2.26-7.56,8.11-13.87,15.44-17.19-3.87-7.55-11.64-12.41-20.34-12.41-9.94,0-18.68,6.36-21.75,15.82l-.87,2.67c-.15.64-.25,1.29-.34,1.94.7.06,1.41.19,2.13.4,1.66.44,3.19,1.25,4.52,2.31,4.13-10.53,20.33-10.11,22.19,2.72-3.92-9.73-17.9-9.86-19.2,1.34,0,0-.47,5.34-.47,5.34l-3.05-4.42c-1.83-2.51-4.08-3.79-6.34-4.12.07,5.22,1.8,10.48,5.07,14.75-4.72-3.4-8.15-8.42-9.92-14.03-3.94,1.77-6.9,6.26-6.18,11.69-2.65-5.69.34-12.13,5.39-14.78-.18-.89-.32-1.79-.42-2.7-8.41,1.32-15.47,7.23-18.17,15.52-3.07,9.45.27,19.73,8.32,25.58l2,1.45c6.18,3.59,14.11,4.26,21.04,1.59-6.2,4.8-14.54,6.53-22.39,5.03-.9,5.59.36,11.23,3.35,15.9h38.39c2.56-4.06,4-8.9,3.88-13.83,1.46,4.43,1.63,9.22.69,13.83h27.21c3.62-5.65,4.71-12.71,2.53-19.39l-.72-2.22c-2.76-6.88-9.02-12.37-16.45-14.34,8.04-.26,16.03,3.42,21.52,9.52,5.94-6.01,8.14-14.88,5.46-23.12Z"/>
    </clipPath>
    <linearGradient id="linear-gradient-2" x1="-16.57" y1="80.3" x2="45.39" y2="80.3" gradientUnits="userSpaceOnUse">
      <stop offset="0" stop-color="#f16322"/>
      <stop offset=".22" stop-color="#ef5d22"/>
      <stop offset=".5" stop-color="#eb4d23"/>
      <stop offset=".81" stop-color="#e43225"/>
      <stop offset="1" stop-color="#e01f27"/>
    </linearGradient>
  </defs>
  <path class="cls-3" d="M95.96,34.45c-3.07-9.45-11.81-15.8-21.75-15.8h-2.99s0,0,0,0c-7.02.75-13.74,4.84-17.77,10.96,2.26-7.56,8.11-13.87,15.44-17.19-3.87-7.55-11.64-12.41-20.34-12.41-9.94,0-18.68,6.36-21.75,15.82l-.87,2.67c-.15.64-.25,1.29-.34,1.94.7.06,1.41.19,2.13.4,1.66.44,3.19,1.25,4.52,2.31,4.13-10.53,20.33-10.11,22.19,2.72-3.92-9.73-17.9-9.86-19.2,1.34,0,0-.47,5.34-.47,5.34l-3.05-4.42c-1.83-2.51-4.08-3.79-6.34-4.12.07,5.22,1.8,10.48,5.07,14.75-4.72-3.4-8.15-8.42-9.92-14.03-3.94,1.77-6.9,6.26-6.18,11.69-2.65-5.69.34-12.13,5.39-14.78-.18-.89-.32-1.79-.42-2.7-8.41,1.32-15.47,7.23-18.17,15.52-3.07,9.45.27,19.73,8.32,25.58l2,1.45c6.18,3.59,14.11,4.26,21.04,1.59-6.2,4.8-14.54,6.53-22.39,5.03-.9,5.59.36,11.23,3.35,15.9h38.39c2.56-4.06,4-8.9,3.88-13.83,1.46,4.43,1.63,9.22.69,13.83h27.21c3.62-5.65,4.71-12.71,2.53-19.39l-.72-2.22c-2.76-6.88-9.02-12.37-16.45-14.34,8.04-.26,16.03,3.42,21.52,9.52,5.94-6.01,8.14-14.88,5.46-23.12Z"/>
  <path class="cls-4" d="M68.09,76.61h-2.6l-24.59-33.77h-7.38v3.71l8.73,12.4,16.04,21.88s1.7,2.9,5.27,3.12c.43.05.7.04.7.04h35.29v-7.38h-31.47Z"/>
  <g class="cls-5">
    <path class="cls-1" d="M14.84,76.61H-8.11c0,3.69,3.68,7.38,11.58,7.38.38,0,36.61,0,36.61,0v-7.38H14.84Z"/>
  </g>
</svg>