<svg width="246" height="68" viewBox="0 0 246 68" fill="none" xmlns="http://www.w3.org/2000/svg">
<g clip-path="url(#clip0_50_199)">
<path d="M181.927 27.8881C179.446 20.2381 172.38 15.0976 164.345 15.0976H161.928C156.253 15.7047 150.821 19.0157 147.563 23.97C149.39 17.85 154.119 12.7419 160.044 10.0542C156.916 3.94234 150.635 0.00805664 143.602 0.00805664C135.566 0.00805664 128.501 5.15663 126.019 12.8147L125.316 14.9762C125.195 15.4942 125.114 16.0204 125.041 16.5466C125.607 16.5952 126.181 16.7004 126.763 16.8704C128.105 17.2266 129.342 17.8823 130.417 18.7404C133.756 10.2162 146.851 10.5562 148.355 20.9423C145.186 13.0657 133.885 12.9604 132.834 22.0271L132.454 26.35L129.988 22.7719C128.509 20.74 126.69 19.7038 124.863 19.4366C124.92 23.6623 126.318 27.9204 128.962 31.3771C125.146 28.6247 122.373 24.5609 120.943 20.0195C117.758 21.4523 115.365 25.0871 115.947 29.4828C113.805 24.8766 116.222 19.6633 120.304 17.5181C120.159 16.7976 120.045 16.069 119.964 15.3323C113.166 16.4009 107.459 21.1852 105.276 27.8962C102.794 35.5462 105.494 43.8681 112.002 48.6038L113.619 49.7776C118.615 52.6838 125.025 53.2262 130.627 51.0647C125.615 54.9504 118.873 56.3509 112.527 55.1366C111.8 59.6619 112.818 64.2276 115.235 68.0081H146.269C148.339 64.7214 149.503 60.8033 149.406 56.8123C150.586 60.3985 150.724 64.2762 149.964 68.0081H171.96C174.886 63.4342 175.767 57.719 174.005 52.3114L173.423 50.5143C171.192 44.9447 166.131 40.5004 160.125 38.9057C166.625 38.6952 173.084 41.6743 177.522 46.6123C182.323 41.7471 184.102 34.5666 181.935 27.8962L181.927 27.8881Z" fill="#B2E2F2"/>
<path d="M52.6179 40.5247V47.0494H45.7304V40.5247H52.6179ZM52.6179 55.5251V62.1551H45.7304V55.5251H52.6179Z" fill="#17479E"/>
<path d="M68.632 34.688H61.5748V62.0175V67.9999H68.632V62.0175V34.688Z" fill="#17479E"/>
<path d="M22.6186 67.9999V39.1161L0 0.938965H15.3998L29.8214 26.6494L44.243 0.938965H59.4325L36.8139 39.0109V67.9999H22.6186Z" fill="url(#paint0_linear_50_199)"/>
<path d="M112.835 58.7632V34.688H105.777V62.0256H115.817C113.829 62.0256 112.835 60.9408 112.835 58.7632Z" fill="#17479E"/>
<path d="M97.6531 53.2747C96.109 51.8257 93.4979 50.5952 89.8117 49.5752C89.4803 49.4861 89.1973 49.389 88.8901 49.3C88.3728 49.13 87.8635 48.968 87.2895 48.798C85.5596 48.288 84.2419 47.8428 83.3527 47.4623C82.4635 47.0819 81.841 46.6771 81.4772 46.24C81.1216 45.8028 80.9356 45.2847 80.9356 44.6614C80.9356 43.7223 81.3075 42.9857 82.0512 42.4595C82.7949 41.9333 83.8377 41.6742 85.1716 41.6742H97.1114V35.7H84.6865C81.2913 35.7 78.656 36.469 76.7886 38.0071C74.9293 39.5452 73.9916 41.7147 73.9916 44.4995C73.9916 47.0009 74.7596 48.9761 76.2955 50.4252C77.8395 51.8742 80.4506 53.1047 84.1368 54.1247C84.4683 54.2138 84.7512 54.3109 85.0584 54.4C85.5758 54.57 86.085 54.7319 86.659 54.9019C88.3889 55.4119 89.7066 55.8571 90.5958 56.2376C91.4851 56.618 92.1075 57.0228 92.4713 57.46C92.827 57.8971 93.0129 58.4152 93.0129 59.0385C93.0129 59.9776 92.6411 60.7142 91.8973 61.2404C91.1536 61.7666 90.1108 62.0257 88.777 62.0257H74.1613V68H89.2701C92.6653 68 95.3006 67.2309 97.168 65.6928C99.0273 64.1547 99.965 61.9852 99.965 59.2004C99.965 56.699 99.1971 54.7238 97.6611 53.2747H97.6531Z" fill="#17479E"/>
<path d="M225.895 57.2413C226.494 55.2499 226.793 53.1289 226.793 50.8866C226.793 47.697 226.146 44.8799 224.869 42.4351C223.583 39.9904 221.797 38.088 219.501 36.728C217.205 35.368 214.554 34.688 211.547 34.688H198.637V59.848H205.686V40.6623H211.223C213.753 40.6623 215.815 41.6175 217.415 43.5118C219.008 45.4142 219.8 47.9075 219.8 50.9837C219.8 53.1532 219.436 55.0799 218.717 56.7394C217.998 58.3989 216.987 59.7023 215.702 60.6251C214.416 61.548 212.929 62.0094 211.223 62.0094H223.486C224.497 60.8113 225.305 59.2166 225.904 57.2251L225.895 57.2413Z" fill="#17479E"/>
<path d="M191.628 62.0175V34.6799H184.571V51.7447C184.571 53.6309 184.716 55.0071 185.007 55.8733L169.648 34.6799H163.682V58.318C163.682 60.779 162.486 62.0095 160.101 62.0175H158.848L148.104 34.6799H141.322L130.684 62.0175H137.935L138.177 61.3618L140.134 55.9299L144.742 43.3256L152.502 64.519C152.939 65.6766 153.569 66.5509 154.402 67.1256C155.234 67.7085 156.213 67.9918 157.328 67.9918H160.101H160.481H160.748V67.9756C163.868 67.9271 166.309 67.1418 168.047 65.5714C169.834 63.9604 170.731 61.7018 170.731 58.8037V47.7214L183.698 65.4337C184.926 67.1337 186.535 67.9918 188.524 67.9918H191.385V62.0175H191.62H191.628Z" fill="#17479E"/>
<path d="M124.33 62.0176H105.777C105.777 65.0047 108.752 67.9919 115.138 67.9919C115.446 67.9919 144.733 67.9919 144.733 67.9919V62.0176H124.322H124.33Z" fill="url(#paint1_linear_50_199)"/>
<path d="M191.628 62.0176H189.526L169.648 34.6799H163.682V37.6833L170.739 47.7214L183.706 65.4337C183.706 65.4337 185.08 67.7814 187.966 67.9595C188.314 67.9999 188.532 67.9918 188.532 67.9918H246V62.0176H191.628Z" fill="url(#paint2_linear_50_199)"/>
</g>
<defs>
<linearGradient id="paint0_linear_50_199" x1="31.9636" y1="1.7242" x2="6.03308" y2="64.1774" gradientUnits="userSpaceOnUse">
<stop offset="0.09" stop-color="#F16322"/>
<stop offset="0.29" stop-color="#EF5D22"/>
<stop offset="0.54" stop-color="#EB4D23"/>
<stop offset="0.83" stop-color="#E53225"/>
<stop offset="1" stop-color="#E11F27"/>
</linearGradient>
<linearGradient id="paint1_linear_50_199" x1="98.9384" y1="65.0047" x2="149.026" y2="65.0047" gradientUnits="userSpaceOnUse">
<stop stop-color="#F16322"/>
<stop offset="0.22" stop-color="#EF5D22"/>
<stop offset="0.5" stop-color="#EB4D23"/>
<stop offset="0.81" stop-color="#E53225"/>
<stop offset="1" stop-color="#E11F27"/>
</linearGradient>
<linearGradient id="paint2_linear_50_199" x1="163.682" y1="51.3399" x2="252.912" y2="51.3399" gradientUnits="userSpaceOnUse">
<stop stop-color="#E11F27"/>
<stop offset="0.6" stop-color="#F16322"/>
<stop offset="0.61" stop-color="#F16322" stop-opacity="0.97"/>
<stop offset="0.65" stop-color="#F16322" stop-opacity="0.75"/>
<stop offset="0.7" stop-color="#F16322" stop-opacity="0.55"/>
<stop offset="0.74" stop-color="#F16322" stop-opacity="0.38"/>
<stop offset="0.79" stop-color="#F16322" stop-opacity="0.24"/>
<stop offset="0.84" stop-color="#F16322" stop-opacity="0.14"/>
<stop offset="0.89" stop-color="#F16322" stop-opacity="0.06"/>
<stop offset="0.94" stop-color="#F16322" stop-opacity="0.01"/>
<stop offset="1" stop-color="#F16322" stop-opacity="0"/>
</linearGradient>
<clipPath id="clip0_50_199">
<rect width="246" height="68" fill="white"/>
</clipPath>
</defs>
</svg>
